<?xml version="1.0" standalone="no"?>
<!DOCTYPE svg PUBLIC "-//W3C//DTD SVG 20010904//EN"
 "http://www.w3.org/TR/2001/REC-SVG-20010904/DTD/svg10.dtd">
<svg version="1.0" xmlns="http://www.w3.org/2000/svg"
 width="400.000000pt" height="400.000000pt" viewBox="0 0 400.000000 400.000000"
 preserveAspectRatio="xMidYMid meet">
<metadata>
Created by potrace 1.14, written by Peter Selinger 2001-2017
</metadata>
<g transform="translate(0.000000,400.000000) scale(0.100000,-0.100000)"
fill="#000000" stroke="none">
<path d="M1200 3240 l0 -40 -40 0 -40 0 0 -40 0 -40 -40 0 -40 0 0 -1040 0
-1040 40 0 40 0 0 -160 0 -160 880 0 880 0 0 160 0 160 40 0 40 0 0 1040 0
1040 -40 0 -40 0 0 40 0 40 -40 0 -40 0 0 40 0 40 -800 0 -800 0 0 -40z m1600
-80 l0 -40 40 0 40 0 0 -1040 0 -1040 -880 0 -880 0 0 1040 0 1040 40 0 40 0
0 40 0 40 800 0 800 0 0 -40z m0 -2280 l0 -80 -800 0 -800 0 0 80 0 80 800 0
800 0 0 -80z"/>
<path d="M1360 3000 l0 -40 -40 0 -40 0 0 -560 0 -560 40 0 40 0 0 -40 0 -40
640 0 640 0 0 40 0 40 40 0 40 0 0 560 0 560 -40 0 -40 0 0 40 0 40 -640 0
-640 0 0 -40z m1280 -600 l0 -560 -640 0 -640 0 0 560 0 560 640 0 640 0 0
-560z"/>
<path d="M1520 2680 l0 -40 40 0 40 0 0 -40 0 -40 -40 0 -40 0 0 -40 0 -40 40
0 40 0 0 40 0 40 40 0 40 0 0 -40 0 -40 40 0 40 0 0 40 0 40 -40 0 -40 0 0 40
0 40 40 0 40 0 0 40 0 40 -40 0 -40 0 0 -40 0 -40 -40 0 -40 0 0 40 0 40 -40
0 -40 0 0 -40z"/>
<path d="M2160 2680 l0 -40 40 0 40 0 0 -40 0 -40 -40 0 -40 0 0 -40 0 -40 40
0 40 0 0 40 0 40 40 0 40 0 0 -40 0 -40 40 0 40 0 0 40 0 40 -40 0 -40 0 0 40
0 40 40 0 40 0 0 40 0 40 -40 0 -40 0 0 -40 0 -40 -40 0 -40 0 0 40 0 40 -40
0 -40 0 0 -40z"/>
<path d="M1760 2360 l0 -40 40 0 40 0 0 -40 0 -40 80 0 80 0 0 40 0 40 40 0
40 0 0 40 0 40 -40 0 -40 0 0 -40 0 -40 -80 0 -80 0 0 40 0 40 -40 0 -40 0 0
-40z"/>
<path d="M1760 2120 l0 -40 -40 0 -40 0 0 -40 0 -40 40 0 40 0 0 40 0 40 200
0 200 0 0 -40 0 -40 80 0 80 0 0 -40 0 -40 40 0 40 0 0 40 0 40 -40 0 -40 0 0
40 0 40 -80 0 -80 0 0 40 0 40 -200 0 -200 0 0 -40z"/>
<path d="M2160 1400 l0 -40 240 0 240 0 0 40 0 40 -240 0 -240 0 0 -40z"/>
<path d="M1280 1320 l0 -40 80 0 80 0 0 40 0 40 -80 0 -80 0 0 -40z"/>
</g>
</svg>
